<svg id="ekMFqzvbEfA1" xmlns="http://www.w3.org/2000/svg"
 xmlns:xlink="http://www.w3.org/1999/xlink" 
 viewBox="0 0 300 300" shape-rendering="geometricPrecision"
  text-rendering="geometricPrecision" project-id="29a264206f9249bebc73364bce52f9c0" export-id="1904d18bffa947b8a54aa795011662cf" cached="false" style="background-color:transparent"><g transform="matrix(.760724 0 0 0.685245-14.983351-30.658959)"><path d="M345.5,200.11c8.33,3,25.83,6,28.5,24.33s-16,16.89-23.83,11.67c-10-6.67-20-42.67-4.67-36Z" fill="#70442d"/><g><path d="M263.75,370.94c3-5.33,13.83-8.83,23.33-8.67s28.67-2.33,29.17,0s2.83,8.83-1.17,9-56.16,6.17-51.33-.33Z" fill="#70442d"/><path d="M325.11,303.07c3.7-21.22,10.42-42.08-3.89-66s-43.22-25.86-56.85-1.07-3.35,75.38-1.89,87.26s29,12.51,41.53,14.13s13.81,7.49,21.1-34.32Z" fill="#70442d"/><path d="M292.94,294.69c-18.9-1.93-34.45,10-29.62,31.65s6.78,27.08,7.76,32.21s2.09,11.52,19,13s27.83,3.1,28.44-12.67s1.9-25.94,2.39-35.69-1.36-25.78-27.97-28.5Z" fill="#70442d"/></g><g><path d="M151.16,203.3c-11.6.16-37.51,21.41-30.73,69.55c5.52,39.17,9.2,41.34,15.22,46.23c6.78,5.5,26.88,8.26,33.77,2.55c2-1.66,7-5.31,7.38-21s18.97-97.93-25.64-97.33Z" fill="#70442d"/><path d="M124.57,297.53c2,10.37,12.73,49.16,13,62.26.1,4.93,1.81,8.47,11.83,9.32s22.63,7.77,23.75-8.3s3.49-51.76,3.63-62.39c.43-31.42-58.73-30.58-52.21-.89Z" fill="#70442d"/><path d="M119.58,371.28c3-5.33,13.83-8.83,23.33-8.67s28.67-2.33,29.17,0s2.83,8.83-1.17,9-56.16,6.17-51.33-.33Z" fill="#70442d"/></g><path d="M121.58,162.19c10.38,3.85,31.5,8.25,51.75,8.75s34.5,2.5,28.75,35.75-8.75,74.25-27,72.5-46.25-17.12-67.75-26.62-10.75-42.37-4.5-57.12s10-36.51,18.75-33.26Z" fill="#8a583d"/><path d="M133.83,202.44c2.52-19.38,18.25-41.25,52.5-34.5s59.25,3.5,79,2.75s67.25.5,84.75,38s3.75,79.75-29,92-112.25,7.25-142-11.75-50-50-45.25-86.5Z" fill="#8a583d"/><g><path d="M156.08,205.94c-11.37,2.27-33,27.9-17.5,74c12.58,37.5,16.6,39,23.42,42.67c7.67,4.17,27.94,3.2,33.67-3.67c1.67-2,5.92-6.5,3.42-22s.74-99.75-43.01-91Z" fill="#8a583d"/><path d="M147.17,303.44c3.83,9.83,21.5,46,24.17,58.83c1,4.83,3.33,8,13.33,7s23.67,3.5,21.83-12.5-6-51.52-7.83-62c-5.34-30.99-63.34-19.33-51.5,8.67Z" fill="#8a583d"/><path d="M153.83,371.28c3-5.33,13.83-8.83,23.33-8.67s28.67-2.33,29.17,0s2.83,8.83-1.17,9-56.16,6.17-51.33-.33Z" fill="#8a583d"/></g><g><path d="M300.75,370.94c3-5.33,13.83-8.83,23.33-8.67s28.67-2.33,29.17,0s2.83,8.83-1.17,9-56.16,6.17-51.33-.33Z" fill="#8a583d"/><path d="M355.58,300.19c1.52-21.49,6.08-42.92-10.58-65.25s-45.67-21.33-56.67,4.67s4.33,75.33,7,87s30.08,9.5,42.75,9.83s14.5,6.09,17.5-36.25Z" fill="#8a583d"/><path d="M322.08,294.94c-19,0-33.25,13.5-26.25,34.5s9.5,26.25,11,31.25s3.25,11.25,20.25,11s28,.25,27-15.5-.75-26-1.25-35.75-4-25.5-30.75-25.5Z" fill="#8a583d"/></g><g><path d="M131,166.94c-11.89-6.86-29.33-17.33-54-6s-29.67,30-32.33,40.33-5.67,11.33-13,15.33-3.33,12,2.67,19.33s18.33,13,29.33,13.33s34.67.67,45.67,4s27-34,29-51.33s9.99-24.99-7.34-34.99Z" fill="#8a583d"/><path d="M92.33,171.94c-3.17-11,5-24.17,16.67-16.83s9.33,31-6.67,28.33c-5,0-9.83-8.83-10-11.5Z" fill="#70442d"/><path d="M37.5,219.78c-.24-2.84-2.74-3.16-5.84-3.16-5.1,2.78-4.71,7.5-2,12.58c3.86-1.92,8.11-6.2,7.84-9.42Z" fill="#472818"/><path d="M62.5,201.78c-3.7.13-4,8.67.33,8.5s4.5-8.67-.33-8.5Z" fill="#472818"/></g></g></svg>
